<svg width="58" height="58" viewBox="0 0 58 58" fill="none" xmlns="http://www.w3.org/2000/svg">
<path d="M55.5834 9.66666V14.5H48.3334V21.75H43.5001V14.5H36.2501V9.66666H43.5001V2.41666H48.3334V9.66666H55.5834ZM35.0417 26.5833C36.0035 26.583 36.9257 26.2007 37.6055 25.5204C38.2853 24.8401 38.6671 23.9176 38.6667 22.9559C38.6664 21.9942 38.2841 21.072 37.6038 20.3921C36.9235 19.7123 36.0011 19.3306 35.0393 19.3309C34.5631 19.3311 34.0916 19.425 33.6517 19.6074C33.2118 19.7898 32.8122 20.057 32.4756 20.3939C32.139 20.7307 31.872 21.1305 31.6899 21.5705C31.5078 22.0106 31.4142 22.4821 31.4143 22.9583C31.4145 23.4345 31.5084 23.906 31.6908 24.3459C31.8732 24.7858 32.1404 25.1855 32.4773 25.5221C32.8141 25.8587 33.214 26.1257 33.654 26.3078C34.094 26.4898 34.5655 26.5835 35.0417 26.5833ZM43.5001 34.3988L42.2603 33.0213C41.8071 32.5166 41.2526 32.113 40.633 31.8366C40.0135 31.5603 39.3427 31.4175 38.6643 31.4175C37.986 31.4175 37.3152 31.5603 36.6956 31.8366C36.0761 32.113 35.5216 32.5166 35.0683 33.0213L33.483 34.7879L21.7501 21.75L14.5001 29.8047V14.5H31.4167V9.66666H14.5001C13.2182 9.66666 11.9888 10.1759 11.0824 11.0823C10.176 11.9887 9.66675 13.2181 9.66675 14.5V43.5C9.66675 44.7819 10.176 46.0112 11.0824 46.9177C11.9888 47.8241 13.2182 48.3333 14.5001 48.3333H43.5001C44.782 48.3333 46.0113 47.8241 46.9178 46.9177C47.8242 46.0112 48.3334 44.7819 48.3334 43.5V26.5833H43.5001V34.3988Z" fill="#093264"/>
</svg>
